<?xml version="1.0" encoding="UTF-8" standalone="no"?>
<svg
   width="512"
   height="512"
   version="1.1"
   id="svg113"
   sodipodi:docname="logo-for-a-real-estate-company-with-buildings.svg"
   inkscape:version="1.3.2 (091e20e, 2023-11-25, custom)"
   inkscape:export-filename="logo-for-a-real-estate-company-with-buildings.svg"
   inkscape:export-xdpi="96"
   inkscape:export-ydpi="96"
   xmlns:inkscape="http://www.inkscape.org/namespaces/inkscape"
   xmlns:sodipodi="http://sodipodi.sourceforge.net/DTD/sodipodi-0.dtd"
   xmlns="http://www.w3.org/2000/svg"
   xmlns:svg="http://www.w3.org/2000/svg">
  <sodipodi:namedview
     id="namedview113"
     pagecolor="#505050"
     bordercolor="#eeeeee"
     borderopacity="1"
     inkscape:showpageshadow="0"
     inkscape:pageopacity="0"
     inkscape:pagecheckerboard="0"
     inkscape:deskcolor="#505050"
     inkscape:zoom="1.5371094"
     inkscape:cx="194.19568"
     inkscape:cy="265.75857"
     inkscape:window-width="1920"
     inkscape:window-height="1001"
     inkscape:window-x="-9"
     inkscape:window-y="-9"
     inkscape:window-maximized="1"
     inkscape:current-layer="svg113"
     inkscape:export-bgcolor="#ffffffbf" />
  <path
     fill="#FEFEFE"
     transform="scale(0.5 0.5)"
     d="M-0 -0L1024 0L1024 1024L-0 1024L0 -0Z"
     id="path1" />
  <path
     fill="#031C4E"
     transform="scale(0.5 0.5)"
     d="M663.08 559.635L673.968 563.184L673.833 570.75L673.253 571.359C669.403 567.841 665.98 563.968 663.08 559.635Z"
     id="path2" />
  <path
     fill="#7FC315"
     transform="scale(0.5 0.5)"
     d="M662.402 572.348C666.034 576.273 669.746 580.16 674.072 583.338C675.363 584.287 676.726 585.406 678.355 585.584L677.914 588.692L649.366 576.192L649.148 592.547L649.115 575.306L662.402 572.348Z"
     id="path3" />
  <path
     fill="#F09C0B"
     transform="scale(0.5 0.5)"
     d="M348.64 541.316L353.961 540.976L354.517 632.206L348.737 632.48L348.64 541.316Z"
     id="path4" />
  <path
     fill="#F09C0B"
     transform="scale(0.5 0.5)"
     d="M228.308 605.25C229.125 605.224 228.699 605.159 229.571 605.523L229.663 652.673L213.72 657.75L212.59 657.25L213.071 617.522C216.618 612.975 223.639 608.754 228.308 605.25Z"
     id="path5" />
  <path
     fill="#031C4E"
     transform="scale(0.5 0.5)"
     d="M543.654 443.541L561.331 458.431C564.654 461.233 568.604 464.042 571.547 467.227C573.853 469.722 575.56 473.014 577.526 475.798C581.031 480.76 584.88 485.361 588.939 489.873L570.126 482.459L540.033 470.241C532.937 467.428 525.503 465.023 518.766 461.424C521.991 458.547 525.716 456.038 529.206 453.48C533.915 450.028 538.591 446.462 543.654 443.541Z"
     id="path6" />
  <path
     fill="#031C4E"
     transform="scale(0.5 0.5)"
     d="M651.455 586.724L724.637 613.251L724.682 677.738L651.569 660.252L651.455 586.724Z"
     id="path7" />
  <path
     fill="#FCFDF7"
     transform="scale(0.5 0.5)"
     d="M697.902 611.139L707.766 614.281L707.736 647.344L697.709 645.118L697.902 611.139Z"
     id="path8" />
  <path
     fill="#FCFDF7"
     transform="scale(0.5 0.5)"
     d="M685.386 606.842L696.031 610.425L696.03 644.779L685.191 642.271L685.386 606.842Z"
     id="path9" />
  <path
     fill="#031C4E"
     transform="scale(0.5 0.5)"
     d="M433.616 432.63L460.082 443.345L514.008 465.926L572.931 489.662L598.782 500.505C601.522 501.64 605.286 502.546 607.716 504.136C610.231 505.781 612.629 508.524 614.881 510.594L629.518 523.824L657.157 548.222C662.034 552.454 667.647 556.491 671.964 561.261L640.532 548.845L598.5 533.997L560.711 521.131C552.556 518.401 543.158 516.003 535.646 511.829C531.522 509.538 527.723 506.296 523.965 503.456L500.776 485.483L463.939 457.75L432.901 434.134L433.616 432.63Z"
     id="path10" />
  <path
     fill="#609906"
     transform="scale(0.5 0.5)"
     d="M759.473 473.25C760.177 473.234 759.803 473.144 760.515 473.75L760.771 687.424L739.52 681.379L731.526 679.191L731.334 538.384L731.379 507.482C731.391 505.723 730.913 501.385 731.443 499.918C731.588 499.517 756.546 476.282 759.473 473.25Z"
     id="path11"
     style="fill:#5651fb;fill-opacity:1" />
  <path
     fill="#FEFEFE"
     transform="scale(0.5 0.5)"
     d="M749.729 575.75C750.157 576.62 749.947 578.022 749.944 579C748.214 581.814 741.729 584.615 738.75 586.459L738.033 585.889L737.958 583.5C739.349 580.805 747.013 577.39 749.729 575.75Z"
     id="path12" />
  <path
     fill="#FEFEFE"
     transform="scale(0.5 0.5)"
     d="M753.339 561.25L754.276 561.344L754.327 564C753.888 565.985 740.127 573.431 737.771 574.75L737.177 574L737.491 572C741.738 567.864 748.315 564.53 753.339 561.25Z"
     id="path13" />
  <path
     fill="#FEFEFE"
     transform="scale(0.5 0.5)"
     d="M753.118 549.25L754.358 549.065L754.477 552.25C752.988 553.834 750.679 554.992 748.886 556.235L738.75 563.422L737.75 563.606L737.603 561C738.954 558.339 750.023 551.526 753.118 549.25Z"
     id="path14" />
  <path
     fill="#FEFEFE"
     transform="scale(0.5 0.5)"
     d="M753.577 537.75C754.235 538.483 753.918 540.245 753.912 541.25L738.25 553.388L737.596 552.879L737.51 550.5C737.749 548.593 751.134 539.491 753.577 537.75Z"
     id="path15" />
  <path
     fill="#FEFEFE"
     transform="scale(0.5 0.5)"
     d="M753.12 525.75L753.746 525.819C753.997 527.155 753.883 528.311 753.75 529.646L738.062 542.25L737.153 542.156L737.007 539.75C737.086 539.01 737.152 538.841 737.644 538.25C738.911 536.728 741.173 535.381 742.771 534.124L753.12 525.75Z"
     id="path16" />
  <path
     fill="#FEFEFE"
     transform="scale(0.5 0.5)"
     d="M753.524 514.25L754.429 514.344C754.471 515.837 754.493 517.147 754.15 518.617C748.387 522.246 742.871 527.202 737.805 531.75L736.99 531.656L736.834 529.5C737.046 527.571 740.204 525.531 741.63 524.353L753.524 514.25Z"
     id="path17" />
  <path
     fill="#FEFEFE"
     transform="scale(0.5 0.5)"
     d="M754.122 502.75L754.833 503.029C754.88 503.713 754.995 504.557 754.892 505.25C754.508 507.831 740.871 518.533 737.792 521.25C737.229 521.12 737.557 521.24 736.871 520.75L737.05 518C738.468 515.723 741.018 513.954 743.048 512.214L754.122 502.75Z"
     id="path18" />
  <path
     fill="#FEFEFE"
     transform="scale(0.5 0.5)"
     d="M754.767 491.016C755.033 492.764 754.924 494.684 754.966 496.458L738.25 510.759L737.171 510.356L736.991 508.5C738.471 505.895 741.088 503.922 743.267 501.898L754.767 491.016Z"
     id="path19" />
  <path
     fill="#609906"
     transform="scale(0.5 0.5)"
     d="M762.689 468.689C770.267 473.102 776.946 480.437 784.013 485.709L784.188 530.999L791.549 533.031L791.335 671.917L805.843 674.479L799.706 688.63L796.448 695.285L762.972 687.873L762.689 468.689Z"
     id="path20"
     style="fill:#5651fb;fill-opacity:1" />
  <path
     fill="#609906"
     transform="scale(0.5 0.5)"
     d="M672.707 328.75L673.239 328.67C674.197 329.656 673.808 331.266 673.811 332.622L673.945 558.977L638.915 524.014L660.995 510.773L660.977 502.99L634.554 519.736L630.336 515.974L625.482 511.677L660.866 489.732L660.814 481.002L637.911 495.063C633.704 497.628 628.149 500.536 624.481 503.773C623.426 504.703 622.727 506.186 622.132 507.443L621.784 508.192L609.458 497.161L609.365 384.986L672.707 328.75Z"
     id="path21"
     style="fill:#5651fb;fill-opacity:1" />
  <path
     fill="#FEFEFE"
     transform="scale(0.5 0.5)"
     d="M659.658 416.25L660.63 416.523L660.842 423.767L622.75 451.43C621.954 451.753 622.422 451.614 621.32 451.75L621.274 444.565L659.658 416.25Z"
     id="path22" />
  <path
     fill="#FEFEFE"
     transform="scale(0.5 0.5)"
     d="M660.859 393.379L661.047 401.515L620.821 431.587L620.839 425.027C625.642 419.416 632.309 414.751 638.211 410.319L660.859 393.379Z"
     id="path23" />
  <path
     fill="#FEFEFE"
     transform="scale(0.5 0.5)"
     d="M659.623 438.25C660.352 438.108 659.919 438.148 660.928 438.25L660.99 444.87C660.568 446.4 655.742 449.354 654.304 450.407C644.04 457.916 633.348 465.392 622.25 471.619C621.721 471.547 622.069 471.62 621.25 471.255L621.12 465.54C622.601 463.035 628.891 459.554 631.423 457.779L659.623 438.25Z"
     id="path24" />
  <path
     fill="#FEFEFE"
     transform="scale(0.5 0.5)"
     d="M659.982 459.75C660.513 459.842 660.16 459.748 660.957 460.25L661 467.557L622.25 493.155L621.407 492.975L621.446 486.415C624.984 482.095 631.691 478.536 636.37 475.415L659.982 459.75Z"
     id="path25" />
  <path
     fill="#FEFEFE"
     transform="scale(0.5 0.5)"
     d="M660.13 371.25L660.814 371.621L660.971 379.717L621.633 410.25C621.045 410.213 621.421 410.262 620.527 409.977L620.454 402.392L660.13 371.25Z"
     id="path26" />
  <path
     fill="#F09C0B"
     transform="scale(0.5 0.5)"
     d="M288.68 420.508L288.161 639.347L236.167 650.925L234.973 471.95C237.798 467.955 243.157 464.44 246.765 460.949L288.68 420.508Z"
     id="path27" />
  <path
     fill="#FEFEFE"
     transform="scale(0.5 0.5)"
     d="M265.692 494.25C266.495 495.443 266.284 499.553 265.941 501.002C265.723 501.922 264.99 502.11 264.25 502.612C263.746 501.232 263.299 497.935 263.541 496.5C263.777 495.096 264.575 494.93 265.692 494.25Z"
     id="path28" />
  <path
     fill="#FEFEFE"
     transform="scale(0.5 0.5)"
     d="M260.856 525.75L262.037 526.023C262.045 528.193 262.257 530.579 261.75 532.693L259.993 533.75L259.362 533.188L259.388 527L260.856 525.75Z"
     id="path29" />
  <path
     fill="#FEFEFE"
     transform="scale(0.5 0.5)"
     d="M264.067 551.75L265.27 551.391L265.881 552C265.821 554.495 266.324 557.018 264.75 558.999L263.25 559.361L262.87 558.5C262.331 556.583 262.84 553.178 264.067 551.75Z"
     id="path30" />
  <path
     fill="#FCFDF7"
     transform="scale(0.5 0.5)"
     d="M250.588 586.75L251.102 587.312C251.113 589.477 251.19 591.609 250.822 593.75L248.75 594.681L248.01 593.491C247.961 591.94 247.666 589.888 248.19 588.419C248.475 587.619 249.856 587.151 250.588 586.75Z"
     id="path31" />
  <path
     fill="#FCFDF7"
     transform="scale(0.5 0.5)"
     d="M246.034 522.327C246.277 523.097 246.681 523.575 246.303 524.322C245.564 526.162 245.916 527.88 245.597 529.77C245.461 530.574 244.402 531.028 243.75 531.491L243.091 531L243.015 525.75C243.275 523.789 244.537 523.418 246.034 522.327Z"
     id="path32" />
  <path
     fill="#FCFDF7"
     transform="scale(0.5 0.5)"
     d="M260.389 567.75L261.449 567.565L262.014 568C262.082 570.06 262.286 572.207 261.978 574.25L260.25 575.161L259.241 575.363C258.321 574.096 258.945 570.421 259.002 568.75L260.389 567.75Z"
     id="path33" />
  <path
     fill="#FEFEFE"
     transform="scale(0.5 0.5)"
     d="M244.957 549.75L246.055 549.844L246.169 553.474C246.193 556.018 245.95 556.493 244.245 558.25L243.162 557.921L243.038 552.916C243.186 550.964 243.592 550.945 244.957 549.75Z"
     id="path34" />
  <path
     fill="#FCFDF7"
     transform="scale(0.5 0.5)"
     d="M264.82 565.25L266.033 565.523L266.378 571.25C266.133 572.349 265.153 572.547 264.25 573.035L263.75 573.21L262.978 572.75C262.924 570.544 262.897 568.449 263.168 566.25L264.82 565.25Z"
     id="path35" />
  <path
     fill="#FCFDF7"
     transform="scale(0.5 0.5)"
     d="M260 553.75L261.262 553.513L261.934 554.25C262.151 556.319 262.22 558.18 261.991 560.25L260.626 561.25C259.755 561.648 259.833 561.83 258.875 561.5L258.954 554.75L260 553.75Z"
     id="path36" />
  <path
     fill="#FCFDF7"
     transform="scale(0.5 0.5)"
     d="M261.105 497.25C261.562 497.204 261.978 497.394 262.414 497.522C262.845 498.653 263.11 499.448 263.102 500.677C263.084 503.206 262.935 503.288 261.25 505.011L260.433 505.333L259.629 504.977L259.561 504.377C259.268 501.48 259.261 499.55 261.105 497.25Z"
     id="path37" />
  <path
     fill="#FCFDF7"
     transform="scale(0.5 0.5)"
     d="M269.215 562.75L270.25 563.211C270.743 565.05 271.175 566.623 270.841 568.532C270.614 569.827 270.333 569.776 269.25 570.552C268.658 570.752 268.262 570.746 267.645 570.75C267.302 568.539 267.325 566.474 267.381 564.25L269.215 562.75Z"
     id="path38" />
  <path
     fill="#FCFDF7"
     transform="scale(0.5 0.5)"
     d="M259.712 484.818C260.171 483.398 260.889 483.065 262.024 482.131L262.968 482.25C263.145 484.536 263.68 488.13 262.115 489.885C261.64 490.417 261.145 490.64 260.5 490.908C259.889 490.081 259.708 489.336 259.454 488.35C259.751 487.247 259.669 485.962 259.712 484.818Z"
     id="path39" />
  <path
     fill="#FCFDF7"
     transform="scale(0.5 0.5)"
     d="M268.914 577.25C269.951 577.34 269.832 577.516 270.494 578.25C270.736 579.543 270.975 580.797 270.828 582.117C270.628 583.915 270.634 584.117 269.238 585.25L267.834 585.049L267.536 583C266.986 581.283 266.824 580.547 266.956 578.75L268.914 577.25Z"
     id="path40" />
  <path
     fill="#FEFEFE"
     transform="scale(0.5 0.5)"
     d="M261.025 511.75L261.96 511.598L262.61 512.25L262.492 515.5C262.329 517.991 262.354 518.13 260.536 519.75C259.505 520.008 260.018 520.011 258.999 519.75C258.891 517.926 258.714 516.069 258.948 514.25C259.137 512.782 259.912 512.613 261.025 511.75Z"
     id="path41" />
  <path
     fill="#FCFDF7"
     transform="scale(0.5 0.5)"
     d="M265.723 536.75C266.463 537.947 266.82 542.305 266.42 543.687C266.219 544.383 264.865 544.963 264.25 545.351C263.555 545.228 263.995 545.324 262.953 544.978L262.941 539C263.251 537.697 264.659 537.323 265.723 536.75Z"
     id="path42" />
  <path
     fill="#FCFDF7"
     transform="scale(0.5 0.5)"
     d="M269.312 548.75L270.42 549.023C270.748 550.94 270.847 553.26 270.412 555.153C270.21 556.032 268.988 556.512 268.25 556.993L267.132 556.671C266.947 554.497 266.98 552.427 267.113 550.25L269.312 548.75Z"
     id="path43" />
  <path
     fill="#FCFDF7"
     transform="scale(0.5 0.5)"
     d="M266.112 478.75L267.097 479.023C267.297 479.721 267.455 480.268 267.475 481C267.555 483.912 267.319 485.493 265.25 487.499L264.495 487.829L263.952 487.5L263.799 482.5C263.901 480.408 264.643 480.077 266.112 478.75Z"
     id="path44" />
  <path
     fill="#FEFEFE"
     transform="scale(0.5 0.5)"
     d="M246.002 588.75L246.809 588.809C247.483 590.521 247.322 593.361 246.912 595.167C246.697 596.112 245.065 596.791 244.25 597.313C243.449 597.151 243.848 597.313 243.087 596.75L243.23 592.25C243.453 590.607 244.781 589.701 246.002 588.75Z"
     id="path45" />
  <path
     fill="#FCFDF7"
     transform="scale(0.5 0.5)"
     d="M269.525 534.25C270.513 534.043 270.022 533.987 270.984 534.5C271.042 536.433 271.461 539.152 270.924 540.985C270.709 541.719 269.403 542.21 268.75 542.595L268.046 542.771L267.467 542.25C267.382 540.383 267.151 538.351 267.417 536.499C267.587 535.317 268.603 534.945 269.525 534.25Z"
     id="path46" />
  <path
     fill="#FCFDF7"
     transform="scale(0.5 0.5)"
     d="M256.745 555.75L257.482 555.654L258.089 556.25L258.25 561.578C258.11 562.934 257.27 563.143 256.25 563.907C255.607 564.126 255.099 564.184 254.429 564.25C254.366 562.216 253.921 559.326 254.534 557.407C254.789 556.607 256.037 556.163 256.745 555.75Z"
     id="path47" />
  <path
     fill="#FCFDF7"
     transform="scale(0.5 0.5)"
     d="M245.716 575.75C246.548 575.559 246.111 575.575 247.028 575.75C247.045 577.746 247.359 580.288 246.888 582.21C246.702 582.972 244.955 583.637 244.25 584.032L243.546 584.253L242.984 583.75L242.96 579C243.25 577.433 244.575 576.735 245.716 575.75Z"
     id="path48" />
  <path
     fill="#FCFDF7"
     transform="scale(0.5 0.5)"
     d="M265.832 522.75L266.68 523.516C266.827 525.214 267.261 527.392 266.901 529.056C266.716 529.914 264.984 530.768 264.25 531.28C263.567 531.22 263.998 531.283 262.979 530.977L262.915 525.5C263.201 524.065 264.71 523.502 265.832 522.75Z"
     id="path49" />
  <path
     fill="#FCFDF7"
     transform="scale(0.5 0.5)"
     d="M257.36 514.25L258.121 514.812L258.074 520.75C257.199 522.25 256.233 522.571 254.75 523.433C253.423 522.085 253.855 518.707 253.772 516.778L257.36 514.25Z"
     id="path50" />
  <path
     fill="#FCFDF7"
     transform="scale(0.5 0.5)"
     d="M256.935 528.25L258.043 528.344L258.435 534.25C258.246 535.559 256.263 536.315 255.25 536.946L254.506 537.174L253.929 536.75C253.878 534.548 253.884 532.442 254.161 530.25L256.935 528.25Z"
     id="path51" />
  <path
     fill="#FCFDF7"
     transform="scale(0.5 0.5)"
     d="M257.562 499.75C258.159 499.819 257.747 499.748 258.75 500.147C259.047 502.228 258.747 504.482 258.629 506.579C257.661 507.621 256.411 508.379 255.25 509.191L254.265 509.397C253.406 508.014 253.931 504.707 253.959 503L257.562 499.75Z"
     id="path52" />
  <path
     fill="#FEFEFE"
     transform="scale(0.5 0.5)"
     d="M259.454 488.35C259.067 489.456 259.425 491.075 259.014 492C258.632 492.858 254.765 495.566 253.928 496.313L253.953 488.532C255.817 487.031 257.463 485.727 259.712 484.818C259.669 485.962 259.751 487.247 259.454 488.35Z"
     id="path53" />
  <path
     fill="#FCFDF7"
     transform="scale(0.5 0.5)"
     d="M251.894 545.25L253.059 545.523C253.091 547.398 253.448 549.988 252.896 551.761C252.669 552.488 251.871 552.701 251.25 553.069L250.404 552.75L250.313 550.5L249.75 550.418L249.202 553.25C248.705 554.604 248.728 554.637 247.5 555.378C246.372 554.183 246.873 550.485 246.859 548.75C247.343 548.206 247.721 547.879 248.408 547.612C249.56 547.163 250.357 546.917 251.232 545.986L251.894 545.25Z"
     id="path54" />
  <path
     fill="#FEFEFE"
     transform="scale(0.5 0.5)"
     d="M246.034 522.327C247.106 521.354 247.938 520.81 249.25 520.199L250.262 521.379L250.062 520.471L250.02 519.5L252.25 517.643L252.969 518C253.042 521.028 253.657 523.937 251.75 526.429C250.604 525.49 250.618 524.654 250.228 523.25L250.104 524.141C249.881 525.567 249.306 527.755 248.189 528.721L247.75 528.999C246.682 528.348 246.78 528.222 246.485 527.054C246.253 526.137 246.292 525.261 246.303 524.322C246.681 523.575 246.277 523.097 246.034 522.327Z"
     id="path55" />
  <path
     fill="#FCFDF7"
     transform="scale(0.5 0.5)"
     d="M257.163 582.75L258.25 583.043C259.206 585.152 259.161 587.705 258.933 589.982C257.957 590.642 257.438 590.973 256.25 591.037C256.019 589.901 255.7 588.942 255.25 587.875L254.494 591.75C253.509 592.545 253.393 592.739 252.151 592.835C251.745 591.333 251.326 587.508 252.007 586.123C252.304 585.518 253.627 585.224 254.25 584.977L255.211 585.5C255.595 584.17 256.194 583.679 257.163 582.75Z"
     id="path56" />
  <path
     fill="#FCFDF7"
     transform="scale(0.5 0.5)"
     d="M276.826 558.25C277.691 558.021 277.721 557.824 278.557 558.25L278.892 565.451C276.895 566.424 274.322 568.397 272.209 568.78L271.765 566.878C271.599 565.126 271.572 563.505 271.716 561.75L273.25 560.524C274.937 560.937 273.908 563.457 275 565.08C275.734 564.375 275.449 560.455 275.478 559.25L276.826 558.25Z"
     id="path57" />
  <path
     fill="#FEFEFE"
     transform="scale(0.5 0.5)"
     d="M277.433 528.75L278.434 529.023C278.472 531.376 279.145 535.989 277.792 537.75L276.546 537.75C276.412 536.582 276.542 535.792 275.75 534.882C275.635 536.407 275.666 537.732 274.75 539.029L272.887 540.25L272.062 540C271.83 537.623 271.889 535.374 272.022 533C272.839 532.245 273.465 531.592 274.571 531.288C276.081 530.872 276.515 529.943 277.433 528.75Z"
     id="path58" />
  <path
     fill="#FCFDF7"
     transform="scale(0.5 0.5)"
     d="M256.931 569.25C257.529 569.36 257.134 569.257 258.048 569.75L258.467 575.5C257.333 577.003 256.948 577.057 255.25 577.707L254.406 576.125L254.079 577.5C253.642 578.981 253.052 578.964 251.75 579.625L251.169 579.094C250.728 577.915 250.094 576.61 250.33 575.33C250.69 573.374 251.124 572.528 252.658 571.25C254.278 571.505 253.469 572.147 254.75 572.801C255.34 570.896 255.261 570.451 256.931 569.25Z"
     id="path59" />
  <path
     fill="#FCFDF7"
     transform="scale(0.5 0.5)"
     d="M260.755 539.75L262.075 540.023C262.101 542.184 262.178 544.33 261.928 546.48C260.85 547.248 260.542 547.63 259.207 547.785C259.008 546.681 258.801 545.771 258.333 544.75L257.953 548.75L256.25 549.981L254.813 550.75L254.028 550.5C253.954 548.258 253.638 545.88 254.434 543.75C255.72 542.789 256.12 542.274 257.75 542.151L258.208 543C258.595 542.28 258.442 542.643 258.721 541.698C259.055 540.571 259.803 540.381 260.755 539.75Z"
     id="path60" />
  <path
     fill="#FCFDF7"
     transform="scale(0.5 0.5)"
     d="M277.657 469.25C278.214 469.195 277.812 469.206 278.835 469.5C278.985 473.379 279.591 475.804 276.843 478.833L275.762 478.75L275.798 476C274.994 477.419 275.938 477.481 275.709 478.75C275.606 479.323 275.07 479.723 274.75 480.21C273.947 480.877 273.2 481.261 272.25 481.688L270.905 475.569C272.918 473.255 275.567 471.599 277.657 469.25Z"
     id="path61" />
  <path
     fill="#FCFDF7"
     transform="scale(0.5 0.5)"
     d="M252.136 558.25L252.757 558.444C253.648 560.475 253.632 562.326 253.703 564.5C252.93 565.903 252.252 566.053 250.864 566.797L249.75 566.255L249.505 567.75L248.016 568.75L247.132 568.475L246.75 564.519C245.456 566.66 247.095 568.329 245.25 570.27L243.75 571.178L243.036 570.75L243.103 565C243.719 564.109 244.201 563.606 245.123 563.069C246.394 562.33 247.53 561.48 248.698 560.593L249.75 565.745L250.04 561C250.339 559.237 250.78 559.216 252.136 558.25Z"
     id="path62" />
  <path
     fill="#FCFDF7"
     transform="scale(0.5 0.5)"
     d="M251.971 490.25C252.686 490.345 252.301 490.224 253.074 490.75L253.099 492.046C253.14 494.895 253.423 496.61 251.339 498.75L250 498.637C249.614 499.593 249.127 500.317 248.523 501.15L247.909 500.75L247.329 497.25C247.232 498.976 246.982 500.56 246.626 502.25C245.865 503.3 245.026 503.678 243.913 504.288L243.27 503.75L243.234 497.425C244.252 496.592 245.406 495.395 246.716 495.114C247.356 494.977 247.744 493.743 248.5 493.048L249.642 493.75C250.076 492.038 250.667 491.413 251.971 490.25Z"
     id="path63" />
  <path
     fill="#FEFEFE"
     transform="scale(0.5 0.5)"
     d="M252.074 531.25L253.082 531.523L253.055 538.25L251.75 539.43L250.25 539.255C249.625 540.599 249.212 541.002 247.936 541.75L246.75 541.332L246.416 542.75C245.284 543.714 244.779 544.182 243.25 544.393C243.152 542.767 242.855 540.735 243.164 539.136C243.407 537.882 244.662 536.99 245.608 536.25L246.636 537C246.906 535.961 247.283 535.259 247.86 534.357C249.527 533.727 250.381 532.972 251.632 531.706L252.074 531.25Z"
     id="path64" />
  <path
     fill="#FEFEFE"
     transform="scale(0.5 0.5)"
     d="M251.745 504.25L252.728 504.076C253.548 505.611 253.116 508.476 253.099 510.25C252.389 511.723 251.845 512.066 250.5 512.877C249.792 512.182 249.964 512.443 249.515 511.715L249.25 511.259C249.198 512.366 249.128 513.165 248.693 514.19C247.423 515.029 246.357 515.899 245.25 516.942L243.75 518.033L243.115 517.5L243.028 512.25C243.326 510.279 249.894 505.866 251.745 504.25Z"
     id="path65" />
  <path
     fill="#FEFEFE"
     transform="scale(0.5 0.5)"
     d="M277.958 453.75C278.552 453.799 278.16 453.747 279.111 454.023L279.263 461.562L275.853 464.34L274.976 464.25L274.794 461.25L274.25 461.077C273.994 463.48 274.975 464.297 273.421 466.399C272.318 467.27 271.553 468.173 270.145 468.402L269.29 462.524C270.885 459.435 275.377 456.187 277.958 453.75Z"
     id="path66" />
  <path
     fill="#FEFEFE"
     transform="scale(0.5 0.5)"
     d="M277.582 514.25L278.529 514.523C278.648 516.716 278.77 518.853 278.568 521.047C278.496 521.831 277.508 522.346 276.909 522.846L276.078 522.487C275.913 521.526 275.864 521.34 275.37 520.578C274.877 521.62 275.332 522.408 275.595 523.5C274.744 525.081 274.061 525.199 272.5 526.014L271.384 525.25C271.187 526.492 271.002 526.526 270.25 527.458L268.25 528.625C267.885 527.669 267.897 527.969 267.882 527.077C267.84 524.55 267.372 522.142 269.092 520.25L270.078 520.25C270.442 520.978 270.7 521.353 271.25 521.993C271.336 521.348 271.344 519.761 271.617 519.25C272.456 517.682 276.117 515.424 277.582 514.25Z"
     id="path67" />
  <path
     fill="#FCFDF7"
     transform="scale(0.5 0.5)"
     d="M277.801 484.75L278.761 485.187C278.704 487.784 279.358 491.01 277.5 492.864L276.628 492.462C276.637 491.049 276.434 489.652 276.272 488.25L275.834 491.848C275.764 492.884 275.657 493.603 275.25 494.566C274.234 495.385 273.664 496.014 272.341 496.25L271.465 494.569L271.09 495.75L271.023 497.5C270.298 498.822 269.031 499.292 267.75 499.962L267.015 499.5C266.852 497.553 266.937 495.698 267.057 493.75C267.922 492.79 268.704 491.783 269.868 491.181C270.747 490.728 270.278 491.128 270.921 490.481C272.949 488.441 275.617 486.704 277.801 484.75Z"
     id="path68" />
  <path
     fill="#FEFEFE"
     transform="scale(0.5 0.5)"
     d="M275.858 501.034L277.75 499.444L278.505 499.75C278.582 501.959 279.25 505.883 278.068 507.75L276.258 509.055C274.521 509.375 273.175 511.875 271.247 512.294C270.23 512.515 269.723 513.606 268.5 514.061L266.764 511.75L266.502 514.75C266.047 516.259 265.289 516.422 264 517.126L263.25 516.819C263 515.217 262.667 513.081 262.919 511.5C263.154 510.033 264.41 509.486 265.5 508.661L266.702 509.25L266.845 508.5C267.267 507.282 268.478 506.692 269.5 506.081C271.052 507.739 269.269 510.528 270.75 512.029L270.904 504.888L275.858 501.034Z"
     id="path69" />
  <path
     fill="#FEFEFE"
     transform="scale(0.5 0.5)"
     d="M277.451 587.25C277.801 587.37 278.115 587.577 278.442 587.75C278.465 590.301 278.717 593.038 278.119 595.528C276.843 596.666 275.332 597.029 273.867 597.856C272.695 598.517 273.333 598.394 272.013 598.25L270.791 595.579L270.815 598.5C270.084 599.61 269.437 599.738 268.25 600.292L267.442 599.5L266.83 598.686L266.186 599.75C265.673 601.164 265.629 601.056 264.274 601.75L263.806 601.25C263.792 599.337 263.346 596.071 264.042 594.344C264.286 593.74 264.942 593.667 265.5 593.424L266.75 594.026L267.128 592.75C268.077 591.97 268.51 591.634 269.75 591.546L270.75 593.736C272.159 589.566 273.724 589.337 277.451 587.25Z"
     id="path70" />
  <path
     fill="#FCFDF7"
     transform="scale(0.5 0.5)"
     d="M262.331 594.75L263.112 595.312L263.262 600.201C263.351 601.053 263.458 601.398 263.202 602.25C262.205 602.854 261.606 603.152 260.438 603.25L259.797 599.25C259.288 600.813 259.339 602.418 259.042 604.021C258.051 604.581 257.38 604.814 256.25 604.956L255.278 601.75L255.053 605.75C254.103 606.51 254.15 606.75 252.876 606.75L252.434 605.085L251.75 607.47C249.926 608.361 250.921 607.298 249.443 606.883L248.272 608.986C247.881 609.09 247.33 609.208 247 609.437C245.628 610.389 245.068 611.074 243.43 611.75L242.605 611.25C242.56 609.092 242.066 605.866 242.868 603.88C244.428 602.907 247.546 601.252 249.25 601.147L250 602.649C250.485 601.986 250.382 601.305 250.459 600.5C251.623 599.758 252.729 599.222 254 598.68L255.25 600.245C255.214 599.252 255.219 598.661 255.634 597.75C257.272 596.966 257.963 596.228 259.75 596.728C260.442 595.523 261.142 595.382 262.331 594.75Z"
     id="path71" />
  <path
     fill="#FEFEFE"
     transform="scale(0.5 0.5)"
     d="M268.037 463.25L269.047 463.75C269.004 465.891 269.241 468.47 268.396 470.455C267.243 471.382 266.574 472.178 265.102 472.438L264.305 470L263.9 474C262.866 475.003 261.609 476.705 260.198 476.821C260.059 475.54 260.054 474.788 259.359 473.658C258.841 475.135 258.862 476.884 258.75 478.438C257.882 479.238 257.017 480.115 256.033 480.768C254.104 482.048 252.734 483.936 250.856 485.175C249.888 485.813 249.233 486.302 248.429 487.143L248.131 487.46C246.403 488.468 244.95 490.211 243.533 491.619L243.396 488.284C243.365 486.1 243.225 484.915 244.75 483.348L245.75 483.295L246.274 482.44C247.231 480.765 251.551 476.706 253.371 475.913C254.138 475.578 253.871 475.826 254.331 475.25C256.339 472.735 260.383 469.107 263.078 467.421C264.004 466.841 263.555 467.231 264.339 466.403C265.457 465.223 266.762 464.256 268.037 463.25Z"
     id="path72" />
  <path
     fill="#F09C0B"
     transform="scale(0.5 0.5)"
     d="M349.009 289.568L410.224 329.359L410.692 329.627L410.797 415.817L410.676 439.599C410.653 442.251 411.103 446.028 410.591 448.576C410.38 449.627 408.862 451.038 408.151 451.882L401.605 459.9L376.594 491.822L348.563 527.031L349.009 289.568Z"
     id="path73" />
  <path
     fill="#609906"
     transform="scale(0.5 0.5)"
     d="M678.355 585.584L678.419 383.071L678.355 344.327L678.159 331.157C678.125 329.314 677.797 327.037 678.236 325.282L701.25 343.779L718.118 357.197C720.499 359.139 723.476 361.1 725.455 363.435L724.354 606.99L677.914 588.692L678.355 585.584Z"
     id="path74"
     style="fill:#5651fb;fill-opacity:1" />
  <path
     fill="#031C4E"
     transform="scale(0.5 0.5)"
     d="M649.148 592.547L649.036 659.762L519.198 637.865L519.266 517.209L534.287 514.231L568.154 526.633L623.668 545.385L641.563 551.501C643.094 552.036 646.938 553.038 648.114 554.116C649.867 555.721 651.276 559.181 652.793 561.178C655.75 565.067 659.162 568.69 662.402 572.348L649.115 575.306L649.148 592.547Z"
     id="path75" />
  <path
     fill="#FEFEFE"
     transform="scale(0.5 0.5)"
     d="M589.209 562.105L613.087 569.211L613.086 642.248L589.09 638.248L589.209 562.105Z"
     id="path76" />
  <path
     fill="#FEFEFE"
     transform="scale(0.5 0.5)"
     d="M556.648 552.953L583.535 560.282L583.507 637.678L556.929 633.453L556.648 552.953Z"
     id="path77" />
  <path
     fill="#F09C0B"
     transform="scale(0.5 0.5)"
     d="M341.202 292.75C341.497 292.892 341.77 293.078 342.048 293.25L342.213 633.391L295.433 638.322L295.019 329.651L341.202 292.75Z"
     id="path78" />
  <path
     fill="#FEFEFE"
     transform="scale(0.5 0.5)"
     d="M326.025 522.25L327.504 521.821L328.096 522.25L328.092 531.783C327.08 532.722 324.584 533.17 323.189 533.618L311.75 537.546L310.25 538.021C309.142 536.08 309.828 530.347 309.834 527.894L326.025 522.25Z"
     id="path79" />
  <path
     fill="#FEFEFE"
     transform="scale(0.5 0.5)"
     d="M326.945 543.75L327.929 543.637C329.088 544.902 328.507 551.713 328.512 553.784L311.231 559.25C310.129 559.207 310.603 559.393 309.789 558.75L309.632 549.288L326.945 543.75Z"
     id="path80" />
  <path
     fill="#FEFEFE"
     transform="scale(0.5 0.5)"
     d="M327.732 476.75L328.456 477.25L328.47 487.619C322.625 489.199 316.864 492.04 311.25 494.345C310.422 494.158 310.841 494.329 310.031 493.75L309.95 484.524L327.732 476.75Z"
     id="path81" />
  <path
     fill="#FEFEFE"
     transform="scale(0.5 0.5)"
     d="M327.536 564.75L328.471 565.25L328.523 574.988L310.75 579.958C309.883 579.709 310.328 579.914 309.464 579.25L309.437 570.269L327.536 564.75Z"
     id="path82" />
  <path
     fill="#FEFEFE"
     transform="scale(0.5 0.5)"
     d="M327.578 499.25C327.898 499.386 328.19 499.579 328.493 499.75L328.562 509.704L310.524 516.75L309.624 516.25L309.536 506.59C311.18 505.394 313.598 504.757 315.5 504.028L327.578 499.25Z"
     id="path83" />
  <path
     fill="#FEFEFE"
     transform="scale(0.5 0.5)"
     d="M327.207 429.75C328.027 429.517 327.6 429.533 328.49 429.75L328.554 440.647L311.25 449.135L310.546 449.29L310.02 448.75C309.986 445.523 309.694 442.025 310.129 438.833L327.207 429.75Z"
     id="path84" />
  <path
     fill="#FEFEFE"
     transform="scale(0.5 0.5)"
     d="M326.818 453.75L327.93 453.547L328.448 454L328.548 464.367L311.75 471.838C311.179 471.871 310.65 471.806 310.081 471.75L309.943 461.369L326.818 453.75Z"
     id="path85" />
  <path
     fill="#FEFEFE"
     transform="scale(0.5 0.5)"
     d="M326.994 380.75C327.993 380.457 327.495 380.455 328.487 380.75L328.594 392.034L311.75 400.925L310.54 400.479L310.111 390.384L310.03 389.744L326.994 380.75Z"
     id="path86" />
  <path
     fill="#FEFEFE"
     transform="scale(0.5 0.5)"
     d="M328.048 329.75L328.804 330.145L328.938 340.851L310.758 351.588C310.319 347.74 310.638 343.58 310.646 339.697L328.048 329.75Z"
     id="path87" />
  <path
     fill="#FEFEFE"
     transform="scale(0.5 0.5)"
     d="M327.55 354.75C328.267 354.831 327.864 354.721 328.698 355.25L328.877 366.69L311.75 376.656L311.046 376.804C309.872 375.453 310.587 367.324 310.593 365.087L327.55 354.75Z"
     id="path88" />
  <path
     fill="#FEFEFE"
     transform="scale(0.5 0.5)"
     d="M327.949 405.25L328.93 405.75L328.988 416.229L311.019 426.25C310.684 426.128 310.386 425.923 310.074 425.75L309.977 414.303L327.949 405.25Z"
     id="path89" />
  <path
     fill="#031C4E"
     transform="scale(0.5 0.5)"
     d="M348.64 541.316C348.772 540.196 348.928 539.445 349.617 538.519C354.506 531.942 360.387 525.818 365.549 519.409L406.472 468.258L425.921 443.921L468.514 476.099L500.693 500.232L511.445 508.556C512.939 509.791 514.81 511.116 515.919 512.72L516.037 637.633L471.733 633.269L471.813 551.59L436.449 560.19L436.486 614.849L436.488 626.642C436.487 628.093 436.773 629.944 436.068 631.25C434.564 631.398 433.439 631.362 431.948 631.116C430.523 628.151 431.488 616.446 431.491 612.647L431.614 561.23L398.434 569.176L398.266 630.704L362.697 631.56L362.627 540.421C359.766 540.524 356.775 540.441 353.961 540.976L348.64 541.316Z"
     id="path91" />
  <path
     fill="#FEFEFE"
     transform="scale(0.5 0.5)"
     d="M430.037 517.25L431.231 517.098C432.262 518.463 431.659 524.429 431.651 526.407L431.596 556.69L400.25 564.495L398.797 564.578C397.786 562.118 398.419 557 398.419 554.193L398.436 526.163C400.977 524.676 405.11 524.076 408.025 523.26L430.037 517.25Z"
     id="path92" />
  <path
     fill="#FEFEFE"
     transform="scale(0.5 0.5)"
     d="M470.463 506.25L471.334 506.315C472.439 509.151 471.708 514.838 471.696 518.035L471.563 547.01L437.75 555.009C436.906 554.747 437.331 554.966 436.534 554.25L436.482 515.4L470.463 506.25Z"
     id="path93" />
  <path
     fill="#017282"
     transform="scale(0.5 0.5)"
     d="M432.901 434.134L428.068 430.161L424.063 434.729L424.032 252.616L453.419 239.605L453.325 158.183L508.008 120.624L507.727 457.824L456.251 439.103L456.147 431.232L446.864 433.989C446.169 434.197 444.512 434.937 443.866 434.883C442.754 434.79 440.696 433.717 439.604 433.298C435.67 431.788 431.82 429.838 427.682 428.965C429.556 430.419 431.54 431.506 433.616 432.63L432.901 434.134Z"
     id="path94" />
  <path
     fill="#FEFEFE"
     transform="scale(0.5 0.5)"
     d="M454.606 362.25C454.94 362.365 455.236 362.57 455.539 362.75L455.543 379.862L439.776 384.453L439.718 366.886L454.606 362.25Z"
     id="path95" />
  <path
     fill="#FEFEFE"
     transform="scale(0.5 0.5)"
     d="M454.633 328.25L455.476 328.75L455.509 345.847L440.358 350.25L439.534 349.75L439.488 333.216L454.633 328.25Z"
     id="path96" />
  <path
     fill="#FEFEFE"
     transform="scale(0.5 0.5)"
     d="M454.579 259.25C455.49 259.191 455.045 259.076 455.864 259.75L456.022 276.678C451.109 277.741 446.018 280.038 441.25 281.742L440.75 281.843L440.027 281.25L440.005 264.264L454.579 259.25Z"
     id="path97" />
  <path
     fill="#FEFEFE"
     transform="scale(0.5 0.5)"
     d="M453.527 294.25L455.004 293.885L455.496 294.25L455.808 311.222L441.75 315.59L440 315.952C439.149 314.77 439.492 313.165 439.49 311.721L439.474 299.118C440.714 298.217 442.65 297.831 444.119 297.353L453.527 294.25Z"
     id="path98" />
  <path
     fill="#FEFEFE"
     transform="scale(0.5 0.5)"
     d="M454.398 396.25C455.455 396.197 454.96 396.056 455.858 396.75L455.966 414.011L441.321 418.25L440.546 418.332C439.224 416.909 439.978 403.561 439.972 400.72L454.398 396.25Z"
     id="path99" />
  <path
     fill="#FEFEFE"
     transform="scale(0.5 0.5)"
     d="M490.213 196.25L491 196.75L491.01 214.689L474.765 220.506L474.642 202.397L490.213 196.25Z"
     id="path100" />
  <path
     fill="#FEFEFE"
     transform="scale(0.5 0.5)"
     d="M489.655 381.25L490.745 381.057C491.889 382.842 491.234 396.197 491.243 399.269L476.25 404.008C475.067 404.042 475.595 404.214 474.662 403.5L474.554 386.294L489.655 381.25Z"
     id="path101" />
  <path
     fill="#FEFEFE"
     transform="scale(0.5 0.5)"
     d="M488.992 159.75L490.504 159.338C491.373 160.456 491.029 162.367 491.035 163.801L491.094 177.378C487.262 179.889 480.6 181.494 476.25 183.167L474.992 183.43C474.157 182.283 474.494 180.419 474.493 178.985L474.477 165.537L488.992 159.75Z"
     id="path102" />
  <path
     fill="#FEFEFE"
     transform="scale(0.5 0.5)"
     d="M489.792 234.75C490.609 234.828 490.19 234.7 491.009 235.25L491.026 252.928L475.327 258.75L474.561 258L474.502 240.613C475.871 239.564 478.002 239.112 479.653 238.519L489.792 234.75Z"
     id="path103" />
  <path
     fill="#FEFEFE"
     transform="scale(0.5 0.5)"
     d="M489.245 271.75L490.508 271.454C491.385 272.743 491.053 274.507 491.055 276.061L491.076 289.673L476.25 295.1L474.992 295.414C474.056 294.302 474.431 292.342 474.43 290.874L474.417 277.032L489.245 271.75Z"
     id="path104" />
  <path
     fill="#FEFEFE"
     transform="scale(0.5 0.5)"
     d="M489.856 344.75C490.624 344.855 490.225 344.725 491.011 345.25L491.015 363.267L475.75 368.001C474.86 367.768 475.318 367.976 474.44 367.25L474.427 349.799L489.856 344.75Z"
     id="path105" />
  <path
     fill="#FEFEFE"
     transform="scale(0.5 0.5)"
     d="M489.299 417.25L490.688 417.098C491.928 419.491 491.054 432.436 491.046 435.964L476.75 440.972C475.522 441.064 476.106 441.148 474.993 440.75L474.911 422.571C476.233 421.515 478.063 421.136 479.66 420.581L489.299 417.25Z"
     id="path106" />
  <path
     fill="#FEFEFE"
     transform="scale(0.5 0.5)"
     d="M490.243 307.75L490.95 307.685C491.729 308.7 491.384 310.832 491.385 312.166L491.389 326.154L476.067 331.25L475.098 331.315L474.513 330.75L474.469 313.335L490.243 307.75Z"
     id="path107" />
  <path
     fill="#017282"
     transform="scale(0.5 0.5)"
     d="M514.884 119.753L575.033 159.695C575.689 160.055 575.476 159.757 575.471 160.661L575.444 228.819C575.448 230.688 574.932 242.112 575.472 243.127C575.602 243.371 577.747 244.472 578.089 244.672C579.997 245.786 595.988 254.508 596.173 254.913C596.501 255.63 596.172 259.05 596.172 259.989L596.17 281.044L596.169 410.574L596.222 453.071C596.274 461.427 595.976 470.086 596.917 478.38C597.507 483.58 599.165 487.825 601.128 492.647C597.18 489.394 594.508 485.776 591.547 481.682C586.945 475.154 582.33 467.343 576.816 461.614C573.154 457.81 568.416 454.827 564.318 451.477C557.452 445.865 550.891 439.771 543.731 434.542L514.592 454.501L514.884 119.753Z"
     id="path108" />
  <defs
     id="defs109">
    <linearGradient
       id="gradient_0"
       gradientUnits="userSpaceOnUse"
       x1="95.594856"
       y1="613.61877"
       x2="471.17886"
       y2="214.74129">
      <stop
         offset="0"
         stop-color="#050936"
         id="stop108" />
      <stop
         offset="1"
         stop-color="#06549B"
         id="stop109" />
    </linearGradient>
  </defs>
  <defs
     id="defs111">
    <linearGradient
       id="gradient_1"
       gradientUnits="userSpaceOnUse"
       x1="916.6626"
       y1="647.64783"
       x2="558.58752"
       y2="210.64894">
      <stop
         offset="0"
         stop-color="#070B36"
         id="stop110" />
      <stop
         offset="1"
         stop-color="#075299"
         id="stop111" />
    </linearGradient>
  </defs>
  <path
     fill="#031C4E"
     transform="scale(0.5 0.5)"
     d="M947.424 716.047C944.416 727.542 937.295 738.855 930.96 748.79C920.425 765.309 906.43 781.432 891.361 793.958C864.96 815.903 831.626 832.085 799.168 842.787C675.865 883.44 544.041 860.568 423.255 822.656L344.614 796.858C312.347 786.913 279.008 778.848 245.591 773.954C214.162 769.351 183.774 767.515 152.5 774.507C120.746 781.606 92.3993 797.943 74.674 825.79L66.777 841.225C69.3477 824.411 74.7974 810.183 84.4276 796.123C97.3171 777.306 114.211 764.476 134.362 754.326C172.418 735.159 215.737 730.038 257.857 730.037C351.444 730.037 443.557 754.689 534.158 775.436L622.75 792.672C682.264 802.348 744.846 807.191 804.5 796.027C826.056 791.993 846.036 786.591 866.5 778.566C877.217 774.364 888.051 769.699 897.859 763.626C917.509 751.458 934.358 735.05 947.424 716.047Z"
     id="path112" />
  <path
     fill="#7FC315"
     transform="scale(0.5 0.5)"
     d="M409.979 640.746L447.698 641.935C502.515 644.505 557.531 651.913 611.415 662.198L707.766 683.151C756.803 695.228 805.109 711.534 855.882 714.672C870.706 715.589 886.194 715.694 900.641 711.782C921.528 706.127 938.193 692.95 950.903 675.665C956.122 668.569 960.444 660.912 964.841 653.295C956.657 687.994 939.618 720.486 911.534 743.142C898.492 753.663 883.138 761.191 867.742 767.628C842.073 778.361 815.233 785.3 787.605 788.754C772.526 790.639 757.508 791.077 742.33 791.242C712.523 791.565 683.485 789.679 653.883 786.399L590.989 775.958L428.95 741.554L373.777 730.535C332.542 723.455 290.331 719.214 248.466 720.138C190.199 721.422 129.412 732.979 87.5355 776.773C95.2843 757.416 105.696 740.109 120.105 724.927C168.18 674.272 241.121 655.625 308.08 646.96L343.918 642.861L409.979 640.746Z"
     id="path113" />
  <path
     style="fill:#031c4e;fill-opacity:1;stroke-width:0.905674"
     d="m 198.87092,315.36177 17.56618,0.26719 -0.24285,-0.2338 -17.48523,-0.2338 z"
     id="path116" />
  <path
     style="fill:#031c4e;fill-opacity:1;stroke-width:0.94332"
     d="m 217.43677,315.62131 19.02932,1.05894 -0.25351,-0.24455 -18.94296,-1.02193 z"
     id="path116-4" />
  <path
     style="fill:#ffffff;fill-opacity:1;stroke-width:0.651596"
     d="m 199.83397,314.76831 c -0.23855,-0.23854 -0.43372,-7.06601 -0.43372,-15.17215 V 284.85772 L 206.8,283.11501 c 4.06986,-0.9585 7.75678,-1.74271 8.19316,-1.74271 0.60953,0 0.74191,3.92025 0.57115,16.91486 l -0.22228,16.91487 h -7.53717 c -4.14545,0 -7.73235,-0.19517 -7.97089,-0.43372 z"
     id="path117" />
  <path
     style="fill:#ffffff;fill-opacity:1;stroke-width:0.651596"
     d="m 222.00762,315.37183 -3.74079,-0.23473 v -17.38689 -17.38688 l 7.93082,-1.8405 c 4.36195,-1.01228 8.31417,-1.98761 8.78272,-2.16741 0.69072,-0.26506 0.8519,3.44049 0.8519,19.58514 v 19.91204 l -5.04193,-0.12301 c -2.77306,-0.0677 -6.72529,-0.22865 -8.78272,-0.35776 z"
     id="path118" />
</svg>
