<?xml version="1.0" encoding="utf-8" ?>
<svg xmlns="http://www.w3.org/2000/svg" xmlns:xlink="http://www.w3.org/1999/xlink" width="200" height="200">
	<path fill="#D400F1" transform="scale(0.3125 0.3125)" d="M280.275 283.242C291.787 277.645 308.564 278.642 318.04 288.058C315.599 287.308 313.805 285.647 311.636 284.388C297.794 276.353 283.567 283.997 280.275 283.242Z"/>
	<path fill="#2400EE" transform="scale(0.3125 0.3125)" d="M149.205 335.346C151.428 335.205 152.47 335.527 154.409 336.645C157.184 341.265 157.689 355.967 155.76 360.651C155.067 362.335 152.843 362.965 151.288 363.602C149.002 363.757 146.841 363.536 145.677 361.23C143.267 356.454 141.352 339.309 149.205 335.346Z"/>
	<path fill="#D400F1" transform="scale(0.3125 0.3125)" d="M233.027 123.487C236.057 119.619 245.715 111.925 249.888 108.143C264.038 95.3198 274.07 80.7673 295.711 81.4917C311.357 82.0154 323.357 92.7476 333.462 103.68C330.433 102.588 328.15 100.623 324.742 100.214L324.59 100.959C311.743 102.052 319.997 102.123 323.438 108.548L322.749 109.041C298.921 86.9861 288.038 88.3309 264.938 110.431L251.663 122.949C249.42 125.05 246.934 127.862 244.362 129.514C240.269 130.281 227.524 145.875 223.837 146.985L224.094 146.429L224.339 146.82L224.61 146.651L224.28 146.422C224.404 145.879 238.103 129.988 232.873 127.163C230.414 128.13 227.833 129.988 225.738 131.603L225.461 131.82C227.631 129.386 232.045 126.58 233.027 123.487Z"/>
	<defs>
		<linearGradient id="gradient_0" gradientUnits="userSpaceOnUse" x1="306.54401" y1="554.78021" x2="292.8555" y2="100.96014">
			<stop offset="0" stop-color="#0C01FF"/>
			<stop offset="1" stop-color="#FF00FE"/>
		</linearGradient>
	</defs>
	<path fill="url(#gradient_0)" transform="scale(0.3125 0.3125)" d="M244.362 129.514C246.934 127.862 249.42 125.05 251.663 122.949L264.938 110.431C288.038 88.3309 298.921 86.9861 322.749 109.041L323.438 108.548C319.997 102.123 311.743 102.052 324.59 100.959L324.742 100.214C328.15 100.623 330.433 102.588 333.462 103.68C337.138 106.115 354.548 124.451 355.409 124.636L355.761 124.429C357.994 109.522 383.985 112.579 394.976 112.581L427.499 112.575C439.91 112.554 466.973 108.256 462.39 131.203C460.031 143.012 451.474 142.2 441.6 141.508L440.004 141.605C438.124 144.246 439.492 198.403 440.188 202.311C441.054 207.182 444.975 209.594 448.442 212.703L477.849 239.497C487.171 247.881 513.866 270.03 518.449 278.811C527.143 295.467 508.765 300.227 500.53 309.707C503.435 309.636 506.525 310.267 509.485 310.319C514.018 310.399 532.566 307.101 532.731 314.199C532.82 318.007 532.44 321.87 532.424 325.692L532.423 525.813C532.434 530.492 534.824 545.694 529.492 547.782C525.835 549.213 475.55 548.445 467.986 548.445L283.271 548.439C275.371 548.439 255.787 550.072 249.205 547.066C246.341 543.607 247.494 535.568 247.495 531.436L247.515 511.592L192.438 511.579C174.042 511.577 149.153 515.695 145.228 490.402C144.139 483.385 144.465 475.971 144.467 468.883L144.472 400.912C144.469 396.822 143.149 382.308 145.511 379.315C147.362 376.97 151.544 376.009 153.834 378.294C156.632 381.086 155.518 388.746 155.522 392.299L155.543 458.859C155.536 468.512 152.892 490.133 160.327 496.827C165.08 501.107 173.598 500.008 179.473 500.011L227.952 500.004C234.427 500 240.925 500.147 247.388 499.688C247.774 483.727 247.501 467.713 247.501 451.744L247.495 365.824C247.495 349.909 246.936 333.809 247.612 317.925C247.948 310.031 254.47 309.763 260.846 310.037C262.284 299.04 269.746 287.273 280.275 283.242C283.567 283.997 297.794 276.353 311.636 284.388C313.805 285.647 315.599 287.308 318.04 288.058C324.947 293.102 328.779 301.607 329.292 309.99C362.101 310.674 396.199 309.063 428.703 310.621C428.922 304.387 428.115 298.08 428.629 291.868C423.161 287.112 418.207 281.758 412.934 276.784L315.625 186.417C309.202 180.264 302.488 172.759 294.572 168.615C282.82 176.771 272.796 187.152 262.364 196.879L227.554 228.811C204.296 250.436 180.106 271.047 157.337 293.18C155.43 302.088 157.123 311.615 156.158 320.654C154.474 323.2 152.676 324.167 149.845 325.052C146.705 323.613 145.273 322.4 143.767 319.263C143.953 313.888 145.338 308.942 145.335 303.271C131.159 316.601 130.769 320.945 107.884 320.353C93.0982 319.97 82.6148 315.325 72.4389 304.52C54.3642 285.328 73.741 270.72 86.9392 258.592L233.027 123.487C232.045 126.58 227.631 129.386 225.461 131.82L225.738 131.603C227.833 129.988 230.414 128.13 232.873 127.163C238.103 129.988 224.404 145.879 224.28 146.422L224.61 146.651L224.339 146.82L224.094 146.429L223.837 146.985C227.524 145.875 240.269 130.281 244.362 129.514ZM258.8 320.777C258.107 334.729 258.547 348.85 258.551 362.828L258.545 502.782C258.544 513.71 258.01 525.814 258.618 536.63L481.668 537.033C494.962 537.031 508.174 536.813 521.445 536.544L521.248 510.781L521.245 387.872C521.245 365.925 521.032 343.952 521.302 322.009C515.95 321.873 510.591 322.17 505.236 322.182L329.437 322.179C323.849 351.41 282.293 359.315 266.047 334.107C264.564 331.807 260.207 321.55 258.8 320.777ZM210.385 188.715C207.645 191.655 204.336 194.233 201.369 196.965L125.113 268.276C116.953 275.782 94.0877 294.57 89.6811 303.087C98.7781 310.995 116.842 310.771 126.881 304.381C135.317 299.012 143.948 289.281 151.627 282.352L247.409 194.354C258.289 184.463 278.392 162.205 290.286 158.708C303.902 154.705 314.81 169.564 323.73 177.563C364.645 214.25 403.81 252.808 444.82 289.384C447.678 291.933 455.101 298.106 456.977 300.964L457.22 301.143C467.351 308.746 474.97 313.208 489.033 306.974C489.409 306.251 493.887 302.812 494.908 301.803C484.827 287.938 469.054 276.406 456.664 264.25C421.46 229.711 385.361 196.071 349.737 161.969L328.05 141.611C323.348 137.252 318.487 132.945 314.015 128.351C289.146 105.989 295.783 111.124 269.67 134.87L217.43 182.415C215.157 184.525 212.881 186.873 210.385 188.715ZM244.362 129.514C237.36 136.305 229.97 142.768 222.749 149.327L118.984 245.359C112.086 251.819 105.264 258.394 98.16 264.628C88.8048 272.838 70.3308 283.05 80.5407 297.452C93.2427 277.568 137.964 238.6 157.266 220.728L182.505 197.779C186.772 193.85 197.615 182.276 201.867 179.606C204.044 179.303 205.902 178.037 207.701 176.843C215.987 176.689 215.801 182.855 210.543 187.851L210.385 188.715C212.881 186.873 215.157 184.525 217.43 182.415L269.67 134.87C295.783 111.124 289.146 105.989 314.015 128.351L314.521 128.12L314.438 127.676C312.195 125.77 297.24 114.032 307.178 114.981C316.153 115.838 317.016 116.508 323 121.943L323.801 121.857C326.011 123.493 328.049 125.689 330.072 127.562L416.618 210.067C445.84 237.562 475.279 264.875 503.967 292.931C505.382 291.843 508.891 289.508 509.039 287.66C509.627 280.287 477.483 254.798 471.086 248.959L356.584 141.943C345.188 131.136 334.001 120.009 322.749 109.041C298.921 86.9861 288.038 88.3309 264.938 110.431L251.663 122.949C249.42 125.05 246.934 127.862 244.362 129.514ZM355.761 124.429C356.867 126.699 360.913 126.847 362.97 128.093C370.005 132.354 363.203 133.032 374.829 132.784C384.983 132.567 384.209 132.157 390.282 139.596L390.214 140.192C388.271 141.575 378.487 142.009 378.118 143.407C391.522 142.127 411.722 141.402 425.151 141.901L425.315 141.405C424.275 141.066 416.738 139.564 415.3 139.538L414.689 139.531L416.268 137.146C421.387 134.345 428.898 130.341 435.014 132.251C432.461 133.293 444.422 137.427 447.046 139.092L446.643 139.733L446.901 139.594C445.178 140.749 443.054 139.389 441.472 140.635L441.6 141.508C451.474 142.2 460.031 143.012 462.39 131.203C466.973 108.256 439.91 112.554 427.499 112.575L394.976 112.581C383.985 112.579 357.994 109.522 355.761 124.429ZM289.476 337.256C291.014 337.18 292.761 337.466 294.33 337.485C315.723 337.738 325.397 316.99 313.655 300.235C284.552 269.383 250.228 325.844 289.476 337.256ZM378.118 143.407C376.938 143.498 375.752 143.686 374.577 143.831C378.093 148.014 382.542 151.696 386.636 155.302L402.557 169.309C410.786 176.597 418.649 184.739 427.446 191.312C427.901 176.048 427.6 157.966 427.211 142.699C426.668 142.039 425.966 142.079 425.151 141.901C411.722 141.402 391.522 142.127 378.118 143.407ZM441.69 302.062C441.282 304.711 441.232 307.306 441.24 309.983C444.263 310.195 447.212 310.36 450.227 309.974L450.48 309.469C448.524 306.393 444.678 304.052 441.69 302.062Z"/>
	<path fill="#D400F1" transform="scale(0.3125 0.3125)" d="M289.476 337.256C283.572 338.637 274.236 328.953 272.816 323.748C272.174 321.392 272.428 318.848 271.662 316.544C270.639 313.471 267.01 309.215 266.355 307.6C261.502 295.621 290.613 284.32 298.907 288.879C302.178 290.677 313.587 295.939 313.655 300.235C284.552 269.383 250.228 325.844 289.476 337.256Z"/>
	<path fill="#D400F1" transform="scale(0.3125 0.3125)" d="M355.761 124.429C357.994 109.522 383.985 112.579 394.976 112.581L427.499 112.575C439.91 112.554 466.973 108.256 462.39 131.203C460.031 143.012 451.474 142.2 441.6 141.508L441.472 140.635C443.054 139.389 445.178 140.749 446.901 139.594L446.643 139.733L447.046 139.092C444.422 137.427 432.461 133.293 435.014 132.251C428.898 130.341 421.387 134.345 416.268 137.146L414.689 139.531L415.3 139.538C416.738 139.564 424.275 141.066 425.315 141.405L425.151 141.901C411.722 141.402 391.522 142.127 378.118 143.407C378.487 142.009 388.271 141.575 390.214 140.192L390.282 139.596C384.209 132.157 384.983 132.567 374.829 132.784C363.203 133.032 370.005 132.354 362.97 128.093C360.913 126.847 356.867 126.699 355.761 124.429ZM372.885 123.871C370.45 124.747 369.767 130.599 371.693 130.818C374.488 131.136 377.501 130.752 380.32 130.692C402.426 130.226 424.562 131.74 446.641 129.979C447.689 129.837 448.592 129.796 449.462 129.13C451.447 123.248 441.334 124.673 438.392 124.716C417.289 125.022 393.24 122.765 372.885 123.871Z"/>
	<path fill="#D400F1" transform="scale(0.3125 0.3125)" d="M201.867 179.606C204.448 176.589 207.833 173.857 210.75 171.148L262.549 123.925C283.029 104.912 289.748 90.2738 316.12 114.412C318.719 116.791 321.482 119.201 323.801 121.857L323 121.943C317.016 116.508 316.153 115.838 307.178 114.981C297.24 114.032 312.195 125.77 314.438 127.676L314.521 128.12L314.015 128.351C289.146 105.989 295.783 111.124 269.67 134.87L217.43 182.415C215.157 184.525 212.881 186.873 210.385 188.715L210.543 187.851C215.801 182.855 215.987 176.689 207.701 176.843C205.902 178.037 204.044 179.303 201.867 179.606Z"/>
	<path fill="#2400EE" transform="scale(0.3125 0.3125)" d="M282.843 456.083C311.137 456.717 339.48 455.637 367.767 456.318C372.925 460.779 371.284 467.691 363.828 467.816C339.729 468.142 308.197 469.51 284.399 467.811C274.083 467.074 273.379 457.792 282.843 456.083Z"/>
	<path fill="#2400EE" transform="scale(0.3125 0.3125)" d="M281.324 427.23C288.862 426.686 298.628 427.218 306.455 427.223L447.608 427.225C463.243 427.225 478.914 426.98 494.543 427.263C503.231 427.421 502.972 437.034 495.291 438.508C489.789 438.932 484.16 438.707 478.64 438.707L308.219 438.696C298.318 438.698 281.165 442 275.18 432.958C276.668 429.66 278.113 428.642 281.324 427.23Z"/>
	<path fill="#2400EE" transform="scale(0.3125 0.3125)" d="M283.054 369.779C291.756 369.263 302.399 370.014 311.353 370.011L456.864 369.997C470.589 369.995 484.562 369.44 498.251 370.169C504.262 374.224 501.277 381.315 494.689 381.489C476.709 381.262 458.709 381.431 440.726 381.431L300.522 381.417C294.783 381.417 288.948 381.768 283.224 381.537C274.837 381.2 272.661 372.095 283.054 369.779Z"/>
	<path fill="#2400EE" transform="scale(0.3125 0.3125)" d="M449.012 397.967C460.885 399.106 480.914 398.283 492.987 397.808C500.361 397.517 504.17 403.887 499.798 408.108C496.486 411.306 475.872 410.015 471.174 410.015L328.414 410.011L299.372 410.025C293.756 410.028 283.119 411.626 278.346 407.829C273.083 403.641 276.606 398.576 282.145 398.161C286.481 397.836 290.962 398.335 295.32 398.35L397.705 398.371C414.812 398.369 431.911 398.493 449.012 397.967Z"/>
	<path fill="#2400EE" transform="scale(0.3125 0.3125)" d="M492.821 455.143C495.3 455.107 499.584 454.432 500.527 457.524C501.784 461.642 502.25 503.154 499.651 508.132C494.59 511.017 463.892 509.384 456.015 509.885C448.892 510.306 448.027 507.337 447.675 500.789C447.208 492.092 447.552 483.244 447.52 474.528C447.451 455.571 444.079 455.241 465.986 455.271C474.921 455.284 483.891 455.449 492.821 455.143ZM459.348 466.562C458.863 476.934 459.249 487.304 458.838 497.665L490.209 497.709C490.807 496.549 490.305 470.621 490.304 466.846C480.044 466.836 469.584 467.239 459.348 466.562Z"/>
</svg>
