<?xml version="1.0" encoding="utf-8" ?>
<svg xmlns="http://www.w3.org/2000/svg" xmlns:xlink="http://www.w3.org/1999/xlink" width="200" height="200">
	<path fill="#2400EE" transform="scale(0.3125 0.3125)" d="M319.976 118.758C327.402 118.506 357.908 146.075 360.474 151.857C356.298 160.158 329.519 180.57 322.63 183.777C318.74 182.104 317.173 179.857 315.774 175.833C318.908 171.471 331.062 163.948 335.93 161.339C322.775 160.34 309.259 160.921 296.059 160.922L227.065 160.941C217.767 160.919 208.331 160.558 199.057 161.267C199.038 164.849 200.535 173.489 198.229 176.219C196.324 178.473 190.979 178.303 189 176.309C185.939 173.226 187.532 161.457 187.496 157.342C187.397 145.944 197.474 148.787 205.22 148.762L339.971 148.999C336.825 145.658 333.316 142.536 329.734 139.668C323.843 134.954 306.468 126.052 319.976 118.758Z"/>
	<path fill="#D400F1" transform="scale(0.3125 0.3125)" d="M411.682 421.589C422.237 421.089 418.208 445.277 418.295 453.18L418.43 478.639C418.44 487.031 421.143 498.091 409.792 499.425C402.85 500.241 395.379 498.925 388.335 499.037C362.237 499.452 336.062 499.028 309.951 499.026L290.554 498.999C287.215 498.963 283.859 498.659 280.524 498.878L280.071 498.91C288.239 508.203 304.595 518.237 310.289 528.739C303.913 543.411 293.468 528.266 286.237 521.517L267.491 504.17C254.255 491.515 258.059 489.822 271.243 479.188C278.563 473.284 300.034 450.096 306.081 454.819C314.156 461.126 300.055 469.36 295.949 472.94C290.68 477.533 285.829 482.381 281.087 487.514C287.807 487.603 294.569 486.898 301.303 486.848L353.346 486.873C370.819 486.831 388.288 486.562 405.745 487.418C406.216 481.58 406.066 475.699 406.063 469.846L406.043 444.069C406.039 437.905 405.545 430.932 406.84 424.884C408.285 423.209 409.665 422.396 411.682 421.589Z"/>
	<path fill="#2400EE" transform="scale(0.3125 0.3125)" d="M173.332 181.625C180.265 181.236 185.299 186.356 190.301 190.404C205.192 202.457 220.419 214.075 235.347 226.082C244.455 233.408 264.172 245.119 251.001 258.326C244.928 264.415 232.357 262.708 224.056 262.701C223.736 291.447 206.803 313.52 176.927 314.864C146.135 315.199 124.759 293.566 125.397 262.824C115.405 262.38 100.471 265.613 95.9402 253.593C91.4718 241.74 102.137 235.958 109.908 229.805L156.938 193.15C162.096 189.032 166.987 183.86 173.332 181.625ZM174.803 194.588C161.867 204.378 149.439 214.811 136.527 224.624C130.986 228.835 103.974 245.493 106.756 249.547C114.349 252.159 164.897 250.753 175.582 250.601L215.303 250.669C221.672 250.672 238.418 252.099 243.687 248.873L243.93 248.307C242.838 245.841 177.548 194.81 174.803 194.588ZM176.982 262.658L137.232 262.703C137.096 284.838 149.434 301.979 172.578 302.886C197.748 303.146 211.778 286.789 212.236 262.511C200.525 262.967 188.704 262.741 176.982 262.658Z"/>
	<path fill="#2400EE" transform="scale(0.3125 0.3125)" d="M201.156 322.022C237.863 322.43 270.475 350.521 274.695 387.466C275.454 394.118 275.322 400.884 275.317 407.566L275.337 447.453C275.372 468.705 269.007 468.792 250.058 468.762L127.656 468.746L103.484 468.789C98.895 468.808 94.0839 469.102 89.5175 468.667C70.3409 466.839 73.7645 444.227 73.7607 430.88C73.7503 394.452 70.7133 363.653 102.818 337.625C114.26 328.348 136.731 320.458 151.671 322.203C160.198 323.2 169.247 336.755 174.264 343.072C182.373 334.463 188.002 322.749 201.156 322.022ZM146.591 333.875C127.674 335.763 113.222 341.525 100.953 356.541C83.1904 378.283 85.9682 398.729 85.9793 424.625C85.9826 432.483 83.887 446.467 86.7353 453.599C91.538 458.484 109.799 456.637 116.446 456.318C116.842 435.277 115.083 410.125 117.273 389.613C121.452 384.153 128.251 384.208 128.685 392.316C129.788 412.912 128.49 435.363 128.803 456.235C141.541 456.838 154.362 456.552 167.113 456.551L220.976 456.621L221.036 449.141C221.911 430.746 219.265 405.573 221.502 388.575C224.775 383.852 230.17 384.239 233.376 389.047C234.177 395.397 233.523 402.294 233.513 408.715L233.113 456.486C240.863 456.52 253.403 457.664 260.446 456.276C266.247 450.718 263.584 424.759 263.608 416.153C263.681 389.936 265.104 372.912 244.325 351.743C235.309 342.558 217.526 333.867 204.613 333.739C195.088 333.645 186.303 350.808 178.457 356.325C167.754 363.851 158.588 332.419 146.591 333.875Z"/>
	<defs>
		<linearGradient id="gradient_0" gradientUnits="userSpaceOnUse" x1="308.59918" y1="241.77151" x2="563.78625" y2="375.03723">
			<stop offset="0" stop-color="#5501FF"/>
			<stop offset="1" stop-color="#FF00FE"/>
		</linearGradient>
	</defs>
	<path fill="url(#gradient_0)" transform="scale(0.3125 0.3125)" d="M309.714 239.834C316.028 232.066 326.425 227.729 334.633 222.34L406.275 175.187C414.996 169.503 423.47 163.107 432.422 157.828C436.471 155.439 438.164 156.264 442.155 158.545C458.069 167.639 484.327 185.29 499.05 196.355C502.126 198.042 505.032 200.262 507.936 202.237C514.685 206.827 565.347 238.09 566.269 241.572C566.308 241.722 566.665 270.738 566.509 272.094C565.291 282.677 554.997 281.869 548.87 275.734C550.317 298.075 548.998 324.211 549.002 347.007L549.009 383.158C549.012 389.985 549.836 399.168 548.274 405.743C543.704 410.635 528.208 408.788 521.066 408.795L385.163 408.823C378.293 408.823 337.662 410.112 333.395 407.814C326.046 404.58 327.998 388.505 327.995 382.167L328.017 358.184C328.013 330.237 327.881 302.322 328.517 274.382C303.054 289.176 311.07 254.006 309.767 240.37L309.714 239.834ZM436.849 203.197C430.486 209.223 419.184 215.896 411.633 221.022C388.91 236.443 363.922 252.969 340.27 266.93C339.36 278.414 339.985 290.348 339.991 301.873L340.031 384.378C340.041 387.289 340.336 390.53 340.042 393.416C340.587 399.495 354.731 396.731 360.868 396.733L397.817 396.639L397.859 367.343C398.161 366.076 398.08 365.011 398.26 363.839L398.42 364.701L398.277 364.29C397.825 380.961 407.505 354.88 408.24 350.07C408.879 345.894 410.469 325.941 408 322.59L407.707 322.511L407.421 321.864C418.911 311.643 458.831 314.683 474.216 314.745C481.511 321.072 479.481 330.667 479.479 339.238L479.141 385.482C479.135 389.162 479.473 392.607 478.805 396.266C497.957 397.699 517.138 396.539 536.308 396.869C537.177 376.622 536.975 356.25 536.992 335.989L537.454 270.371C522.666 260.301 507.209 251.192 492.224 241.42C487.414 238.284 438.45 205.297 436.849 203.197ZM436.756 169.86C419.294 182.434 400.626 193.268 382.713 205.173L346.585 229.427C338.905 234.528 331.216 240.458 322.602 243.881C323.346 250.284 322.514 256.919 323.071 263.381C344.766 249.657 366.502 235.946 387.853 221.687L412.928 204.69C417.142 201.814 421.288 198.764 425.604 196.045C429.153 193.194 433.146 190.637 437.163 188.486C449.122 194.161 459.578 203.265 470.549 210.615L535.878 253.677C542.14 257.806 548.058 262.567 554.354 266.579C554.184 261.078 553.901 255.541 554.614 250.066C546.69 243.286 538.001 237.767 529.319 232.035L504.381 215.362C500.055 212.457 493.714 209.03 490.004 205.793C473.553 197.276 452.75 180.445 436.756 169.86ZM416.052 325.439C414.061 325.629 412.063 325.863 410.068 325.991C409.61 349.586 409.956 373.24 409.964 396.841C427.197 396.623 444.492 397.12 461.712 396.613L468.165 396.605C467.47 387.698 467.727 378.696 467.725 369.766L467.718 325.344L433.6 325.31C427.829 325.307 421.782 324.924 416.052 325.439Z"/>
	<path fill="#D400F1" transform="scale(0.3125 0.3125)" d="M435.939 342.547C438.494 342.347 441.288 342.082 442.78 344.66C445.332 349.069 447.558 376.666 438.813 381.79C436.298 382.638 433.473 382.007 432.126 379.528C430.098 375.795 427.58 346.91 435.939 342.547Z"/>
	<path fill="#D400F1" transform="scale(0.3125 0.3125)" d="M499.564 315.102C506.687 314.78 521.802 312.335 524.647 321.189C524.235 322.405 523.71 323.599 523.237 324.794C520.084 325.445 517.046 326.181 513.827 326.46C508.556 326.56 496.337 327.813 491.941 325.58C482.572 320.821 493.763 315.829 499.564 315.102Z"/>
	<path fill="#D400F1" transform="scale(0.3125 0.3125)" d="M502.943 367.969C509.178 367.229 516.433 368.151 522.328 370.271C523.021 373.587 523.001 376.213 522.605 379.584C518.164 380.904 512.464 380.813 507.809 381.217C487.446 382.06 475.448 370.765 502.943 367.969Z"/>
	<path fill="#D400F1" transform="scale(0.3125 0.3125)" d="M505.158 341.678C509.593 341.279 520.957 342.101 523.349 345.114C524.321 346.339 523.352 351.964 523.172 353.627C517.758 354.606 511.682 354.522 506.172 354.709C501.345 354.724 494.334 356.323 490.298 353.014C479.329 344.022 501.384 342.092 505.158 341.678Z"/>
	<path fill="#D400F1" transform="scale(0.3125 0.3125)" d="M405.89 237.332L429.699 237.498C434.75 237.498 461.178 235.635 449.433 248.555C447.099 249.352 445.011 249.395 442.578 249.382C435.109 249.286 402.392 250.976 397.827 247.159C391.479 241.852 400.291 237.664 405.89 237.332Z"/>
	<path fill="#D400F1" transform="scale(0.3125 0.3125)" d="M353.029 324.893C342.573 311.37 365.524 313.761 372.12 313.766C382.493 313.774 393.057 313.431 403.357 314.825C404.383 316.638 405.803 320.893 407.421 321.864L407.707 322.511L408 322.59C410.469 325.941 408.879 345.894 408.24 350.07C407.505 354.88 397.825 380.961 398.277 364.29L398.42 364.701L398.26 363.839C398.08 365.011 398.161 366.076 397.859 367.343C397.536 353.775 397.419 339.258 398.102 325.737C386.147 325.541 363.74 326.596 353.029 324.893Z"/>
	<path fill="#D400F1" transform="scale(0.3125 0.3125)" d="M388.976 260.762C394.371 260.505 399.931 260.908 405.35 260.922L450.585 260.922C459.162 260.921 467.836 261.332 476.381 260.692C485.499 260.009 487.853 273.023 474.141 272.803L402.892 272.797C398.134 272.792 384.897 275.314 381.195 272.344C374.129 266.677 381.635 261.287 388.976 260.762Z"/>
	<path fill="#D400F1" transform="scale(0.3125 0.3125)" d="M354.752 297.312C353.2 296.054 351.745 294.515 351.627 292.404C351.142 283.739 368.917 286.251 373.841 286.249L499.689 286.286C504.173 286.284 517.392 284.503 520.776 287.689C522.787 289.582 523.637 295.295 521.165 297.222C519.374 298.618 484.865 298.084 480.553 297.789C471.833 298.16 462.94 297.799 454.205 297.796L371.216 297.818C365.986 297.822 359.846 298.43 354.752 297.312Z"/>
</svg>
