<?xml version="1.0" encoding="utf-8" ?>
<svg xmlns="http://www.w3.org/2000/svg" xmlns:xlink="http://www.w3.org/1999/xlink" width="200" height="200">
	<path fill="#2400EE" transform="scale(0.3125 0.3125)" d="M470.041 253.9C472.504 253.849 474.877 253.935 477.328 254.185C478.054 260.181 481.065 273.268 474.09 274.98C464.364 275.144 462.745 254.781 470.041 253.9Z"/>
	<path fill="#FF00B9" transform="scale(0.3125 0.3125)" d="M338.504 496.658C340.705 496.549 349.961 506.006 354.482 508.293C354.662 507.31 353.31 506.43 353.379 505.76C353.437 505.197 356.554 501.329 356.971 499.467C356.493 496.866 342.914 486.423 339.661 482.554L339.799 482.021C370.673 513.364 411.801 521.692 454.005 508.923L454.053 509.392C448.849 512.247 430.089 514.374 429.052 515.588L428.746 517.064C439.024 531.356 454.307 517.062 458.719 519.515C418.591 533.744 369.421 527.364 338.504 496.658Z"/>
	<path fill="#2400EE" transform="scale(0.3125 0.3125)" d="M251.496 164.584C254.769 164.937 259.319 169.155 258.293 172.774C257.368 176.034 251.202 179.559 248.713 181.631L226.65 199.895C217.818 207.339 197.576 225.836 188.026 231.191C184.783 231.329 180.374 228.794 180.972 225.082C181.675 220.712 195.964 210.619 199.411 207.741L227.41 184.521C234.903 178.363 243.683 169.893 251.496 164.584Z"/>
	<path fill="#2400EE" transform="scale(0.3125 0.3125)" d="M316.506 130.271C321.523 130.348 326.846 137.616 330.395 140.633C346.925 154.682 419.122 215.444 395.439 220.015C387.257 218.95 390.085 214.186 386.6 209.46C376.365 195.578 349.215 171.719 336.235 160.088C328.425 153.089 302.114 137.482 316.506 130.271Z"/>
	<path fill="#2400EE" transform="scale(0.3125 0.3125)" d="M284.095 132.535C289.691 132.235 294.559 139 298.274 142.47L314.571 157.616C326.177 168.441 365.855 202.817 373.327 215.23C375.288 218.488 371.226 219.908 368.846 221.145C367.801 221.488 366.692 221.674 365.617 221.906C361.009 218.871 348.398 205.072 343.13 200.096L301.543 161.169L289.717 150.509C283.998 145.396 274.009 139.119 284.095 132.535Z"/>
	<path fill="#2400EE" transform="scale(0.3125 0.3125)" d="M218.765 106.395C230.61 106.02 242.52 106.256 254.372 106.253L352.796 106.249C374.578 106.252 376.378 104.256 393.964 119.598L408.071 131.765L459.517 174.942C468.886 182.846 478.438 190.532 487.987 198.216C496.793 205.302 510.045 213.137 512.309 225.144C516.744 248.664 491.972 253.219 474.7 253.351L327.779 253.429C321.154 253.429 287.073 256.821 286.159 248.671C285.047 238.751 303.699 241.518 309.27 241.523L468.977 241.54C479.009 241.538 503.812 244.399 501.841 227.786C501.069 221.283 490.393 214.704 485.741 210.955L422.218 158.865C413.098 151.179 403.809 143.688 394.74 135.943C368.051 113.15 377.265 118.44 342.112 118.432L241.249 118.434C206.155 118.444 216.664 114.937 188.973 137.395L98.2029 211.192C93.0027 215.408 84.1414 219.429 82.9357 226.724C80.3904 242.124 98.7421 241.543 107.907 241.548L160.827 241.543C169.64 241.537 194.417 239.543 199.994 240.693C203.989 241.518 202.702 248.176 202.222 250.872C196.585 254.031 183.453 252.466 177.009 252.466L112.466 252.466C101.98 252.507 89.2504 254.051 80.671 246.649C71.2616 238.53 68.9035 223.379 77.3789 213.776C81.7542 208.818 89.9851 203.225 95.3815 198.787L192.675 118.918C201.691 111.373 206.451 107.093 218.765 106.395Z"/>
	<path fill="#D400F1" transform="scale(0.3125 0.3125)" d="M301.564 420.172C287.743 420.609 273.839 420.327 260.008 420.325L150.268 420.34C111.553 420.689 107.902 418.09 107.886 379.375L107.866 296.491C107.868 291.809 107.15 267.744 109.489 264.73C111.27 262.435 115.703 262.457 118.447 262.51C119.177 267.686 118.952 272.965 118.942 278.181L118.879 386.563C118.725 409.418 121.84 409.582 145.831 409.121C151.285 409.016 156.745 409.148 162.195 408.919C161.849 389.03 161.429 369.688 161.437 349.694C161.443 336.886 158.683 321.509 168.388 311.422C178.331 301.088 196.849 303.821 210.042 303.802C229.002 303.774 247.314 304.155 247.237 328.925L246.57 408.767C261.197 409.817 286.286 409.953 300.901 408.754C301.503 400.08 301.969 391.506 303.602 382.943C314.867 323.859 369.462 281.036 429.669 285.3C496.875 290.059 540.463 354.266 535.563 418.942C532.324 461.704 500.98 507.438 458.719 519.515C454.307 517.062 439.024 531.356 428.746 517.064L429.052 515.588C430.089 514.374 448.849 512.247 454.053 509.392L454.005 508.923C457.531 507.211 461.362 506.002 464.933 504.319C498.138 488.661 521.056 455.433 524.621 418.956C530.32 360.648 489.594 302.331 429.483 296.703C370.718 291.201 317.987 337.813 312.787 395.848C309.62 431.187 317.781 455.747 339.799 482.021L339.661 482.554C342.914 486.423 356.493 496.866 356.971 499.467C356.554 501.329 353.437 505.197 353.379 505.76C353.31 506.43 354.662 507.31 354.482 508.293C349.961 506.006 340.705 496.549 338.504 496.658C315.922 475.941 305.003 450.195 301.564 420.172ZM195.414 315.469C177.074 315.747 172.697 315.728 172.686 334.868L172.681 387.907C172.681 394.934 172.246 401.979 172.983 408.983C186.412 409.273 199.85 408.971 213.281 409.119C220.756 409.101 228.261 409.227 235.731 409.067C236.193 402.328 236.019 395.532 236.017 388.78L236.023 338.474C236.049 329.26 237.26 316.393 224.895 315.525C215.447 314.862 204.928 315.257 195.414 315.469Z"/>
	<path fill="#D400F1" transform="scale(0.3125 0.3125)" d="M420.192 312.147C425.104 312.136 429.968 317.891 433.661 320.691C447.991 331.557 465.848 343.253 481.218 353.044C485.115 355.526 499.868 362.25 498.321 367.32C495.643 376.098 486.535 372.554 480.009 369.907C479.55 376.62 479.68 383.364 479.682 390.088L479.682 445C479.67 450.434 479.458 455.872 479.761 461.301C481.014 461.373 482.265 461.496 483.516 461.603C486.679 464.092 489.121 471.887 483.252 472.595C476.561 473.402 467.463 472.811 460.568 472.81L415.266 472.795L376.628 472.814C370.65 472.814 363.876 473.432 358.016 472.486C351.92 471.501 346.713 465.879 353.123 461.538C355.368 461.437 357.607 461.469 359.854 461.499C360.349 440.338 360.02 419.111 360.014 397.942L360.06 380.959C360.105 377.056 360.449 373.079 359.934 369.202C353.806 373.305 340.4 375.096 342.433 366.204C343.399 361.976 361.551 353.033 366.448 349.674L405.509 322.784C410.46 319.335 415.108 315.384 420.192 312.147ZM371.509 370.241C370.106 395.632 369.782 435.936 371.568 461.246C378.145 461.354 384.726 461.39 391.301 461.578L392.157 424.346C392.254 417.156 389.68 400.954 396.522 396.379C404.198 395.206 430.513 395.341 438.705 396.162C449.203 397.215 446.097 409.928 445.954 418.005C446.121 432.393 445.633 446.846 446.368 461.215C453.493 461.438 460.671 461.476 467.797 461.254L467.863 394.463C467.865 386.87 468.677 377.452 468.387 370.313C465.213 370.243 462.063 370.524 458.892 370.561L399.44 370.594C390.16 370.595 380.763 370.912 371.509 370.241ZM403.435 406.705C402.835 424.814 402.748 443.416 403.467 461.519C413.758 461.18 424.069 461.414 434.365 461.335C435.179 459.913 434.618 412.391 434.825 407.48C424.384 406.857 413.886 407.355 403.435 406.705ZM419.95 326.479C405.518 336.898 385.045 348.124 372.411 358.596C387.955 359.446 403.637 358.478 419.204 358.901C434.135 358.651 451.964 360.016 466.516 358.005C460.298 353.959 423.737 327.383 419.95 326.479Z"/>
</svg>
